HIERARCHY
ROOT Hips
{
	OFFSET 0.00000 0.00000 0.00000
	CHANNELS 6 Xposition Yposition Zposition Zrotation Yrotation Xrotation 
	JOINT LHipJoint
	{
		OFFSET 0 0 0
		CHANNELS 3 Zrotation Yrotation Xrotation
		JOINT LeftUpLeg
		{
			OFFSET 1.37959 -1.78713 0.86582
			CHANNELS 3 Zrotation Yrotation Xrotation
			JOINT LeftLeg
			{
				OFFSET 2.54611 -6.99539 0.00000
				CHANNELS 3 Zrotation Yrotation Xrotation
				JOINT LeftFoot
				{
					OFFSET 2.59951 -7.14211 0.00000
					CHANNELS 3 Zrotation Yrotation Xrotation
					JOINT LeftToeBase
					{
						OFFSET 0.18493 -0.50810 1.96120
						CHANNELS 3 Zrotation Yrotation Xrotation
						End Site
						{
							OFFSET 0.00000 -0.00000 1.02054
						}
					}
				}
			}
		}
	}
	JOINT RHipJoint
	{
		OFFSET 0 0 0
		CHANNELS 3 Zrotation Yrotation Xrotation
		JOINT RightUpLeg
		{
			OFFSET -1.33564 -1.78713 0.86582
			CHANNELS 3 Zrotation Yrotation Xrotation
			JOINT RightLeg
			{
				OFFSET -2.52705 -6.94302 0.00000
				CHANNELS 3 Zrotation Yrotation Xrotation
				JOINT RightFoot
				{
					OFFSET -2.55964 -7.03257 0.00000
					CHANNELS 3 Zrotation Yrotation Xrotation
					JOINT RightToeBase
					{
						OFFSET -0.25804 -0.70896 2.12109
						CHANNELS 3 Zrotation Yrotation Xrotation
						End Site
						{
							OFFSET -0.00000 -0.00000 1.11821
						}
					}
				}
			}
		}
	}
	JOINT LowerBack
	{
		OFFSET 0 0 0
		CHANNELS 3 Zrotation Yrotation Xrotation
		JOINT Spine
		{
			OFFSET -0.02031 2.24248 -0.18900
			CHANNELS 3 Zrotation Yrotation Xrotation
			JOINT Spine1
			{
				OFFSET 0.08342 2.24689 -0.03799
				CHANNELS 3 Zrotation Yrotation Xrotation
				JOINT Neck
				{
					OFFSET 0 0 0
					CHANNELS 3 Zrotation Yrotation Xrotation
					JOINT Neck1
					{
						OFFSET -0.11607 1.55844 0.24628
						CHANNELS 3 Zrotation Yrotation Xrotation
						JOINT Head
						{
							OFFSET 0.06877 1.60174 -0.17013
							CHANNELS 3 Zrotation Yrotation Xrotation
							End Site
							{
								OFFSET 0.03358 1.61266 -0.08543
							}
						}
					}
				}
				JOINT LeftShoulder
				{
					OFFSET 0 0 0
					CHANNELS 3 Zrotation Yrotation Xrotation
					JOINT LeftArm
					{
						OFFSET 3.47537 0.55866 -0.72348
						CHANNELS 3 Zrotation Yrotation Xrotation
						JOINT LeftForeArm
						{
							OFFSET 5.38154 -0.00000 0.00000
							CHANNELS 3 Zrotation Yrotation Xrotation
							JOINT LeftHand
							{
								OFFSET 3.33312 -0.00000 0.00000
								CHANNELS 3 Zrotation Yrotation Xrotation
								JOINT LeftFingerBase
								{
									OFFSET 0 0 0
									CHANNELS 3 Zrotation Yrotation Xrotation
									JOINT LeftHandIndex1
									{
										OFFSET 0.71079 -0.00000 0.00000
										CHANNELS 3 Zrotation Yrotation Xrotation
										End Site
										{
											OFFSET 0.57306 -0.00000 0.00000
										}
									}
								}
								JOINT LThumb
								{
									OFFSET 0 0 0
									CHANNELS 3 Zrotation Yrotation Xrotation
									End Site
									{
										OFFSET 0.58181 -0.00000 0.58181
									}
								}
							}
						}
					}
				}
				JOINT RightShoulder
				{
					OFFSET 0 0 0
					CHANNELS 3 Zrotation Yrotation Xrotation
					JOINT RightArm
					{
						OFFSET -3.27844 0.90739 -0.35708
						CHANNELS 3 Zrotation Yrotation Xrotation
						JOINT RightForeArm
						{
							OFFSET -5.16954 -0.00000 0.00000
							CHANNELS 3 Zrotation Yrotation Xrotation
							JOINT RightHand
							{
								OFFSET -3.38287 -0.00000 0.00000
								CHANNELS 3 Zrotation Yrotation Xrotation
								JOINT RightFingerBase
								{
									OFFSET 0 0 0
									CHANNELS 3 Zrotation Yrotation Xrotation
									JOINT RightHandIndex1
									{
										OFFSET -0.81797 -0.00000 0.00000
										CHANNELS 3 Zrotation Yrotation Xrotation
										End Site
										{
											OFFSET -0.65947 -0.00000 0.00000
										}
									}
								}
								JOINT RThumb
								{
									OFFSET 0 0 0
									CHANNELS 3 Zrotation Yrotation Xrotation
									End Site
									{
										OFFSET -0.66953 -0.00000 0.66953
									}
								}
							}
						}
					}
				}
			}
		}
	}
}
MOTION
Frames: 10
Frame Time: 0.0434783
0.00 0.00 0.00 0 0 0 0 0 0 -21 0 0 0 0 0 0 0 0 0 0 0 0 0 0 21 0 0 0 0 0 0 0 0 0 0 0 0 0 0 0 0 0 0 0 0 0 0 -16 0 0 21 0 0 11 0 0 0 -8 0 0 0 0 0 0 0 0 0 0 0 0 0 0 0 0 0 0 0 0 8 0 0 0 0 0 0 0 0 0 0 0 0 0 0 0 0 0
0.00 0.00 0.00 -1.4399 -4.3466 3.3559 0.0000 0.0000 0.0000 -13.0286 1.4593 -11.9790 2.3100 9.4840 27.3214 0.9824 -2.0078 -18.1657 1.1634 -6.8473 -19.2638 0.0000 0.0000 0.0000 20.5478 0.5914 -12.0639 -2.1403 -9.1524 26.2731 -0.8228 -2.0353 -17.9865 -0.0010 -0.2065 0.5675 1.4183 0.6693 6.1825 2.5773 1.0604 0.7346 1.7709 0.5240 -2.7328 -10.0613 -1.9350 -19.2235 4.0017 -0.6093 17.1326 2.9273 -0.5269 8.5627 0.0000 -0.0000 0.0000 -38.0792 -18.7312 22.9835 128.4764 -53.5918 -92.6044 -0.0000 0.0000 -2.9459 17.7512 32.3475 9.7195 -7.1250 0.0000 -0.0000 -17.5218 62.7650 -7.6840 0.0000 -0.0000 0.0000 25.0536 28.1597 8.5529 -123.7793 55.2157 -88.7838 0.0000 -0.0000 -8.0302 -40.3029 20.6164 -16.6278 7.1250 -0.0000 -0.0000 -7.2971 -3.9057 -6.8398
0.00 0.00 0.00 -0.5088 -3.0724 2.6104 0.0000 0.0000 0.0000 -13.3850 2.1359 -13.5547 2.9174 10.5601 30.8103 1.0919 -5.2882 -18.6981 1.3674 -7.4009 -20.9087 0.0000 0.0000 0.0000 19.6125 0.3440 -13.5473 -2.9118 -10.5509 30.7800 -1.1048 -2.1364 -20.7325 -0.0001 0.0549 -0.1509 -1.3204 0.5414 6.5753 2.1935 0.6852 1.4186 2.9478 0.3529 -2.2655 -9.3979 -1.6450 -19.8493 4.7446 -0.4928 16.8767 3.0893 -0.3369 8.5689 0.0000 0.0000 0.0000 -38.3038 -16.3691 23.3752 135.1510 -50.6943 -97.8781 -0.0000 0.0000 -4.1240 11.6357 24.3769 4.8579 -7.1250 0.0000 -0.0000 -18.5776 53.8337 -4.1452 0.0000 0.0000 0.0000 53.5407 19.0215 15.3740 -137.7702 49.3369 -99.8853 0.0000 -0.0000 -12.8198 -31.1866 36.0016 -19.5857 7.1250 -0.0000 -0.0000 1.2485 10.3538 1.4528
0.00 0.00 0.00 -3.0766 0.3461 2.2439 0.0000 0.0000 0.0000 -9.6271 0.2365 -17.8481 4.5682 12.8804 38.9224 1.4511 -8.6929 -21.5717 1.1672 -6.8580 -19.2952 0.0000 0.0000 0.0000 22.5940 -1.1804 -17.1364 -4.2582 -12.4963 37.5112 -1.5161 -2.4648 -24.2614 -0.0306 1.1298 -3.1059 -1.2551 0.2520 8.6174 2.7577 0.3218 1.4512 3.5340 0.1862 -3.3502 -11.9850 -3.1090 -20.0759 7.7898 -2.3153 15.6839 4.3133 -1.0130 8.4119 -0.0000 -0.0000 0.0000 -51.0676 -15.5391 19.7356 146.9207 -43.3909 -106.5235 -0.0000 0.0000 -5.7914 9.0474 23.6279 3.6517 -7.1250 0.0000 -0.0000 -20.6869 52.6672 -4.0428 -0.0000 -0.0000 0.0000 62.0163 -0.9099 33.3378 -145.6371 44.3518 -105.6338 0.0000 -0.0000 -12.7056 -30.8099 44.9490 -22.8462 7.1250 -0.0000 -0.0000 3.8389 19.2182 4.8972
0.00 0.00 0.00 -2.6529 -5.2839 0.8247 0.0000 0.0000 0.0000 -11.7125 4.9428 -18.4682 5.5615 13.9895 43.1953 1.9402 -7.9092 -24.9985 1.2625 -7.1225 -20.0787 0.0000 0.0000 0.0000 19.7383 0.1902 -17.6564 -5.2429 -13.6522 41.8617 -1.6664 1.4968 -23.9874 -0.1666 2.6297 -7.2495 2.2109 0.6357 10.4020 0.6893 1.1011 2.3845 -0.6726 0.5289 -3.3185 -6.7683 -2.1007 -20.8595 6.6013 -2.1174 14.2609 3.0504 -0.7072 7.9715 0.0000 -0.0000 0.0000 -87.7716 6.5871 26.7523 148.0261 -42.5264 -107.2768 -0.0000 0.0000 -9.7198 11.3282 22.4513 4.3750 -7.1250 0.0000 -0.0000 -17.8988 51.9432 -3.1432 0.0000 -0.0000 0.0000 24.9953 3.4407 46.4030 -150.0626 40.8397 -108.6313 0.0000 -0.0000 -23.1453 -56.7668 37.5468 -42.9258 7.1250 -0.0000 -0.0000 -11.1149 23.7103 -14.8472
0.00 0.00 0.00 -2.8258 1.3946 -0.6805 0.0000 0.0000 0.0000 -10.5885 2.4928 -18.9892 6.1391 14.5618 45.5375 1.8442 -12.3068 -24.5840 1.0867 -6.6253 -18.6101 0.0000 0.0000 0.0000 20.4627 -2.7303 -17.5747 -5.8177 -14.2493 44.2455 -1.9829 -1.6702 -27.2654 -0.1785 2.7217 -7.5048 -0.4659 -0.2779 11.6228 2.6054 -0.3131 2.8417 3.0259 -0.1482 -3.5261 -8.1496 -3.6867 -20.0169 6.2323 -3.8207 13.0875 2.9209 -1.6397 7.5807 -0.0000 0.0000 0.0000 -69.1483 10.3092 50.0421 145.7348 -44.2803 -105.7021 -0.0000 0.0000 -10.8068 5.4304 20.7410 1.9282 -7.1250 0.0000 -0.0000 -22.6102 49.4066 -2.5754 -0.0000 0.0000 0.0000 41.2802 -5.8803 41.4442 -153.0223 38.1579 -110.5147 0.0000 -0.0000 -21.4066 -41.0202 40.1646 -29.2958 7.1250 -0.0000 -0.0000 -2.5427 18.1857 -3.2118
0.00 0.00 0.00 -3.0311 3.0195 -1.3109 0.0000 0.0000 0.0000 -9.7095 0.0005 -19.8964 6.7988 15.1601 48.1092 1.9411 -12.2403 -25.1910 1.1684 -6.8615 -19.3058 0.0000 0.0000 0.0000 21.1830 -3.7181 -19.3124 -6.5567 -14.9469 47.1771 -2.2393 -1.9443 -29.0429 -0.0919 1.9552 -5.3819 -2.4168 0.0710 12.7316 4.1169 -0.0252 3.0830 5.7143 0.0155 -3.8908 -11.6232 -4.4389 -19.0866 7.9160 -4.2495 12.4288 3.9980 -1.8734 7.3594 0.0000 0.0000 0.0000 -32.3412 4.3648 43.2853 149.4098 -41.3939 -108.2021 -0.0000 0.0000 -18.3034 -1.5595 21.0440 -0.5601 -7.1250 0.0000 -0.0000 -29.0601 48.6591 -2.8453 0.0000 0.0000 0.0000 49.3599 -8.2568 50.2666 -152.6469 38.5139 -110.2818 0.0000 -0.0000 -18.2290 -32.5641 38.9564 -21.8771 7.1250 -0.0000 -0.0000 1.2813 13.8220 1.5506
0.00 0.00 0.00 1.6616 -15.5215 0.7398 0.0000 0.0000 0.0000 -18.8108 8.2085 -20.4777 5.3463 13.7635 42.2981 1.8490 -1.2610 -25.3652 1.0146 -6.4085 -17.9743 0.0000 0.0000 0.0000 13.2946 8.7941 -20.8893 -5.7614 -14.1931 44.0164 -1.2661 3.5557 -20.3944 -0.1327 2.3479 -6.4681 3.3075 4.1656 13.5520 -0.0869 5.9173 3.6303 -2.8841 2.9084 -3.3911 -9.9212 -2.9652 -16.8386 7.6284 -2.7170 8.6049 3.7744 -1.0978 5.5749 -0.0000 -0.0000 0.0000 -88.6321 14.5888 13.3011 134.9161 -50.8095 -97.6963 -0.0000 0.0000 -10.3508 11.2619 27.3911 5.2343 -7.1250 0.0000 -0.0000 -20.7332 56.6006 -6.0773 -0.0000 -0.0000 0.0000 39.6263 4.1811 16.1520 -132.6568 51.8661 -95.9319 0.0000 -0.0000 -21.1850 -15.9565 39.2159 -10.2469 7.1250 -0.0000 -0.0000 9.8351 9.8195 11.5248
0.00 0.00 0.00 2.7508 -18.1532 1.6632 0.0000 0.0000 0.0000 -20.4238 9.0621 -23.5033 5.7859 14.2176 44.1164 1.9642 -1.3314 -26.1427 0.7690 -5.5995 -15.6267 0.0000 0.0000 0.0000 11.4561 12.3810 -23.3457 -6.2571 -14.6729 46.0049 -1.3420 3.6288 -21.0081 -0.0847 1.8776 -5.1675 4.4667 4.8172 13.9362 -1.8484 6.8904 2.8620 -5.5897 3.3565 -3.9759 -7.5717 -3.1483 -15.8413 6.3770 -3.3934 8.2618 2.9253 -1.4551 5.3017 -0.0000 -0.0000 0.0000 -88.5612 14.3502 13.5700 136.2727 -50.1295 -98.7426 -0.0000 0.0000 -11.8059 9.3453 24.2266 3.8633 -7.1250 0.0000 -0.0000 -20.7257 53.2792 -4.3686 -0.0000 -0.0000 0.0000 34.0258 9.9053 6.8867 -118.0551 56.8063 -84.0359 0.0000 -0.0000 -29.2524 -15.3698 33.5857 -8.6461 7.1250 -0.0000 -0.0000 9.4067 4.1616 10.1988
0.00 0.00 0.00 -4.8794 4.1545 2.8674 0.0000 0.0000 0.0000 -7.6982 -1.2145 -32.8441 9.2296 16.9532 56.8808 1.7157 -15.0641 -24.2364 0.5972 -4.9473 -13.7584 0.0000 0.0000 0.0000 21.9502 1.1869 -29.4621 -8.3907 -16.3992 53.9580 -2.1220 -3.8368 -29.1012 -0.0698 1.7047 -4.6902 2.3409 -1.2526 15.6287 5.1054 -0.8652 1.6968 4.3214 -0.4126 -6.9191 -8.2739 -3.5868 -16.4901 5.3567 -3.7383 11.3140 2.6777 -1.7311 6.3928 -0.0000 -0.0000 0.0000 -65.6378 -9.7686 4.1030 136.1325 -50.2014 -98.6350 -0.0000 0.0000 -19.9838 10.2452 27.9994 4.8500 -7.1250 0.0000 -0.0000 -22.1625 56.9550 -6.7179 -0.0000 -0.0000 0.0000 48.0432 8.1530 -8.9260 -122.4004 55.6356 -87.6484 0.0000 -0.0000 -31.3067 -27.7156 37.1479 -17.6017 7.1250 -0.0000 -0.0000 3.3361 10.5161 3.8949
